<mxfile host="app.diagrams.net" modified="2023-03-16T03:42:31.089Z" agent="5.0 (Macintosh; Intel Mac OS X 10_15_7) AppleWebKit/537.36 (KHTML, like Gecko) Chrome/111.0.0.0 Safari/537.36" etag="1K6UNn16TlbJvrYC3kA6" version="21.0.6" type="github">
  <diagram name="Page-1" id="822b0af5-4adb-64df-f703-e8dfc1f81529">
    <mxGraphModel dx="2937" dy="909" grid="1" gridSize="10" guides="1" tooltips="1" connect="1" arrows="1" fold="1" page="1" pageScale="1" pageWidth="1100" pageHeight="850" background="none" math="0" shadow="0">
      <root>
        <mxCell id="0" />
        <mxCell id="1" parent="0" />
        <mxCell id="gQVoci-WzUw3gmFV9PGs-1" value="" style="aspect=fixed;html=1;points=[];align=center;image;fontSize=12;image=img/lib/azure2/networking/Virtual_Router.svg;" vertex="1" parent="1">
          <mxGeometry x="490" y="660" width="68" height="68" as="geometry" />
        </mxCell>
        <mxCell id="gQVoci-WzUw3gmFV9PGs-2" value="" style="aspect=fixed;html=1;points=[];align=center;image;fontSize=12;image=img/lib/azure2/networking/Virtual_Router.svg;" vertex="1" parent="1">
          <mxGeometry x="490" y="290" width="68" height="68" as="geometry" />
        </mxCell>
        <mxCell id="gQVoci-WzUw3gmFV9PGs-3" value="" style="image;html=1;image=img/lib/clip_art/networking/Switch_128x128.png" vertex="1" parent="1">
          <mxGeometry x="307.5" y="660" width="80" height="80" as="geometry" />
        </mxCell>
        <mxCell id="gQVoci-WzUw3gmFV9PGs-4" value="" style="aspect=fixed;perimeter=ellipsePerimeter;html=1;align=center;shadow=0;dashed=0;spacingTop=3;image;image=img/lib/active_directory/firewall.svg;" vertex="1" parent="1">
          <mxGeometry x="500.75" y="455" width="30.5" height="50" as="geometry" />
        </mxCell>
        <mxCell id="gQVoci-WzUw3gmFV9PGs-5" value="" style="aspect=fixed;perimeter=ellipsePerimeter;html=1;align=center;shadow=0;dashed=0;spacingTop=3;image;image=img/lib/active_directory/firewall.svg;" vertex="1" parent="1">
          <mxGeometry x="499.75" y="150" width="30.5" height="50" as="geometry" />
        </mxCell>
        <mxCell id="gQVoci-WzUw3gmFV9PGs-10" value="" style="aspect=fixed;perimeter=ellipsePerimeter;html=1;align=center;shadow=0;dashed=0;spacingTop=3;image;image=img/lib/active_directory/domain_controller.svg;" vertex="1" parent="1">
          <mxGeometry x="110" y="669" width="35" height="50" as="geometry" />
        </mxCell>
        <mxCell id="gQVoci-WzUw3gmFV9PGs-11" value="database" style="shape=cylinder3;whiteSpace=wrap;html=1;boundedLbl=1;backgroundOutline=1;size=15;" vertex="1" parent="1">
          <mxGeometry x="97.5" y="560" width="60" height="80" as="geometry" />
        </mxCell>
        <mxCell id="gQVoci-WzUw3gmFV9PGs-16" value="" style="group" vertex="1" connectable="0" parent="1">
          <mxGeometry x="307.5" y="410" width="60" height="95" as="geometry" />
        </mxCell>
        <mxCell id="gQVoci-WzUw3gmFV9PGs-6" value="" style="aspect=fixed;perimeter=ellipsePerimeter;html=1;align=center;shadow=0;dashed=0;spacingTop=3;image;image=img/lib/active_directory/web_server.svg;movable=1;resizable=1;rotatable=1;deletable=1;editable=1;locked=0;connectable=1;" vertex="1" parent="gQVoci-WzUw3gmFV9PGs-16">
          <mxGeometry x="10" width="40" height="50" as="geometry" />
        </mxCell>
        <mxCell id="gQVoci-WzUw3gmFV9PGs-14" value="web svr" style="text;html=1;align=center;verticalAlign=middle;resizable=1;points=[];autosize=1;strokeColor=none;fillColor=none;movable=1;rotatable=1;deletable=1;editable=1;locked=0;connectable=1;" vertex="1" parent="gQVoci-WzUw3gmFV9PGs-16">
          <mxGeometry y="65" width="60" height="30" as="geometry" />
        </mxCell>
        <mxCell id="gQVoci-WzUw3gmFV9PGs-17" value="" style="group" vertex="1" connectable="0" parent="1">
          <mxGeometry x="230" y="370" width="60" height="90" as="geometry" />
        </mxCell>
        <mxCell id="gQVoci-WzUw3gmFV9PGs-7" value="" style="aspect=fixed;perimeter=ellipsePerimeter;html=1;align=center;shadow=0;dashed=0;spacingTop=3;image;image=img/lib/active_directory/web_server.svg;movable=1;resizable=1;rotatable=1;deletable=1;editable=1;locked=0;connectable=1;" vertex="1" parent="gQVoci-WzUw3gmFV9PGs-17">
          <mxGeometry x="10" width="40" height="50" as="geometry" />
        </mxCell>
        <mxCell id="gQVoci-WzUw3gmFV9PGs-15" value="web svr" style="text;html=1;align=center;verticalAlign=middle;resizable=1;points=[];autosize=1;strokeColor=none;fillColor=none;movable=1;rotatable=1;deletable=1;editable=1;locked=0;connectable=1;" vertex="1" parent="gQVoci-WzUw3gmFV9PGs-17">
          <mxGeometry y="60" width="60" height="30" as="geometry" />
        </mxCell>
        <mxCell id="gQVoci-WzUw3gmFV9PGs-18" value="" style="group" vertex="1" connectable="0" parent="1">
          <mxGeometry x="280" y="250" width="60" height="90" as="geometry" />
        </mxCell>
        <mxCell id="gQVoci-WzUw3gmFV9PGs-9" value="" style="aspect=fixed;perimeter=ellipsePerimeter;html=1;align=center;shadow=0;dashed=0;spacingTop=3;image;image=img/lib/active_directory/web_server.svg;movable=1;resizable=1;rotatable=1;deletable=1;editable=1;locked=0;connectable=1;" vertex="1" parent="gQVoci-WzUw3gmFV9PGs-18">
          <mxGeometry x="20" width="40" height="50" as="geometry" />
        </mxCell>
        <mxCell id="gQVoci-WzUw3gmFV9PGs-13" value="web svr" style="text;html=1;align=center;verticalAlign=middle;resizable=1;points=[];autosize=1;strokeColor=none;fillColor=none;movable=1;rotatable=1;deletable=1;editable=1;locked=0;connectable=1;" vertex="1" parent="gQVoci-WzUw3gmFV9PGs-18">
          <mxGeometry y="60" width="60" height="30" as="geometry" />
        </mxCell>
        <mxCell id="gQVoci-WzUw3gmFV9PGs-21" value="internet" style="aspect=fixed;perimeter=ellipsePerimeter;html=1;align=center;shadow=0;dashed=0;spacingTop=3;image;image=img/lib/active_directory/internet_cloud.svg;" vertex="1" parent="1">
          <mxGeometry x="490" y="80" width="50" height="31.5" as="geometry" />
        </mxCell>
        <mxCell id="gQVoci-WzUw3gmFV9PGs-24" value="" style="endArrow=none;dashed=1;html=1;rounded=0;" edge="1" parent="1">
          <mxGeometry width="50" height="50" relative="1" as="geometry">
            <mxPoint y="560" as="sourcePoint" />
            <mxPoint x="870" y="560" as="targetPoint" />
          </mxGeometry>
        </mxCell>
        <mxCell id="gQVoci-WzUw3gmFV9PGs-25" value="" style="endArrow=none;dashed=1;html=1;rounded=0;" edge="1" parent="1">
          <mxGeometry width="50" height="50" relative="1" as="geometry">
            <mxPoint y="240" as="sourcePoint" />
            <mxPoint x="870" y="240" as="targetPoint" />
          </mxGeometry>
        </mxCell>
        <mxCell id="gQVoci-WzUw3gmFV9PGs-26" value="" style="image;html=1;image=img/lib/clip_art/computers/Server_128x128.png" vertex="1" parent="1">
          <mxGeometry x="240" y="560" width="80" height="80" as="geometry" />
        </mxCell>
        <mxCell id="gQVoci-WzUw3gmFV9PGs-28" value="" style="image;html=1;image=img/lib/clip_art/computers/Server_128x128.png" vertex="1" parent="1">
          <mxGeometry x="240" y="840" width="80" height="80" as="geometry" />
        </mxCell>
        <mxCell id="gQVoci-WzUw3gmFV9PGs-34" value="" style="endArrow=none;html=1;rounded=0;exitX=0;exitY=0;exitDx=0;exitDy=0;entryX=0.25;entryY=1;entryDx=0;entryDy=0;" edge="1" parent="1" source="gQVoci-WzUw3gmFV9PGs-5" target="gQVoci-WzUw3gmFV9PGs-21">
          <mxGeometry width="50" height="50" relative="1" as="geometry">
            <mxPoint x="480" y="150" as="sourcePoint" />
            <mxPoint x="530" y="100" as="targetPoint" />
          </mxGeometry>
        </mxCell>
        <mxCell id="gQVoci-WzUw3gmFV9PGs-35" value="" style="endArrow=none;html=1;rounded=0;entryX=1;entryY=0.75;entryDx=0;entryDy=0;" edge="1" parent="1" target="gQVoci-WzUw3gmFV9PGs-5">
          <mxGeometry width="50" height="50" relative="1" as="geometry">
            <mxPoint x="520" y="300" as="sourcePoint" />
            <mxPoint x="570" y="240" as="targetPoint" />
          </mxGeometry>
        </mxCell>
        <mxCell id="gQVoci-WzUw3gmFV9PGs-36" value="" style="endArrow=none;html=1;rounded=0;" edge="1" parent="1" source="gQVoci-WzUw3gmFV9PGs-7" target="gQVoci-WzUw3gmFV9PGs-2">
          <mxGeometry width="50" height="50" relative="1" as="geometry">
            <mxPoint x="740" y="420" as="sourcePoint" />
            <mxPoint x="820" y="350" as="targetPoint" />
          </mxGeometry>
        </mxCell>
        <mxCell id="gQVoci-WzUw3gmFV9PGs-37" value="" style="endArrow=none;html=1;rounded=0;entryX=0.25;entryY=0;entryDx=0;entryDy=0;" edge="1" parent="1" source="gQVoci-WzUw3gmFV9PGs-2" target="gQVoci-WzUw3gmFV9PGs-4">
          <mxGeometry width="50" height="50" relative="1" as="geometry">
            <mxPoint x="750" y="430" as="sourcePoint" />
            <mxPoint x="800" y="380" as="targetPoint" />
          </mxGeometry>
        </mxCell>
        <mxCell id="gQVoci-WzUw3gmFV9PGs-38" value="" style="endArrow=none;html=1;rounded=0;" edge="1" parent="1" source="gQVoci-WzUw3gmFV9PGs-6" target="gQVoci-WzUw3gmFV9PGs-2">
          <mxGeometry width="50" height="50" relative="1" as="geometry">
            <mxPoint x="750" y="430" as="sourcePoint" />
            <mxPoint x="480" y="330" as="targetPoint" />
          </mxGeometry>
        </mxCell>
        <mxCell id="gQVoci-WzUw3gmFV9PGs-39" value="" style="endArrow=none;html=1;rounded=0;exitX=0;exitY=0.5;exitDx=0;exitDy=0;" edge="1" parent="1" source="gQVoci-WzUw3gmFV9PGs-26" target="gQVoci-WzUw3gmFV9PGs-11">
          <mxGeometry width="50" height="50" relative="1" as="geometry">
            <mxPoint x="760" y="440" as="sourcePoint" />
            <mxPoint x="840" y="370" as="targetPoint" />
          </mxGeometry>
        </mxCell>
        <mxCell id="gQVoci-WzUw3gmFV9PGs-40" value="" style="endArrow=none;html=1;rounded=0;entryX=0;entryY=0.5;entryDx=0;entryDy=0;exitX=0.691;exitY=0.655;exitDx=0;exitDy=0;exitPerimeter=0;" edge="1" parent="1" source="gQVoci-WzUw3gmFV9PGs-31" target="gQVoci-WzUw3gmFV9PGs-28">
          <mxGeometry width="50" height="50" relative="1" as="geometry">
            <mxPoint x="770" y="450" as="sourcePoint" />
            <mxPoint x="850" y="380" as="targetPoint" />
          </mxGeometry>
        </mxCell>
        <mxCell id="gQVoci-WzUw3gmFV9PGs-41" value="" style="endArrow=none;html=1;rounded=0;exitX=1;exitY=0.25;exitDx=0;exitDy=0;" edge="1" parent="1" source="gQVoci-WzUw3gmFV9PGs-9" target="gQVoci-WzUw3gmFV9PGs-2">
          <mxGeometry width="50" height="50" relative="1" as="geometry">
            <mxPoint x="780" y="460" as="sourcePoint" />
            <mxPoint x="860" y="390" as="targetPoint" />
          </mxGeometry>
        </mxCell>
        <mxCell id="gQVoci-WzUw3gmFV9PGs-42" value="" style="endArrow=none;html=1;rounded=0;exitX=-0.024;exitY=0.535;exitDx=0;exitDy=0;exitPerimeter=0;" edge="1" parent="1" source="gQVoci-WzUw3gmFV9PGs-1" target="gQVoci-WzUw3gmFV9PGs-3">
          <mxGeometry width="50" height="50" relative="1" as="geometry">
            <mxPoint x="770" y="450" as="sourcePoint" />
            <mxPoint x="850" y="380" as="targetPoint" />
          </mxGeometry>
        </mxCell>
        <mxCell id="gQVoci-WzUw3gmFV9PGs-43" value="" style="endArrow=none;html=1;rounded=0;" edge="1" parent="1">
          <mxGeometry width="50" height="50" relative="1" as="geometry">
            <mxPoint x="280" y="620" as="sourcePoint" />
            <mxPoint x="348" y="670" as="targetPoint" />
          </mxGeometry>
        </mxCell>
        <mxCell id="gQVoci-WzUw3gmFV9PGs-44" value="" style="endArrow=none;html=1;rounded=0;entryX=1;entryY=0.5;entryDx=0;entryDy=0;" edge="1" parent="1" source="gQVoci-WzUw3gmFV9PGs-1" target="gQVoci-WzUw3gmFV9PGs-4">
          <mxGeometry width="50" height="50" relative="1" as="geometry">
            <mxPoint x="790" y="470" as="sourcePoint" />
            <mxPoint x="870" y="400" as="targetPoint" />
          </mxGeometry>
        </mxCell>
        <mxCell id="gQVoci-WzUw3gmFV9PGs-45" value="" style="endArrow=none;html=1;rounded=0;exitX=0;exitY=0.5;exitDx=0;exitDy=0;" edge="1" parent="1" source="gQVoci-WzUw3gmFV9PGs-10" target="gQVoci-WzUw3gmFV9PGs-26">
          <mxGeometry width="50" height="50" relative="1" as="geometry">
            <mxPoint x="780" y="460" as="sourcePoint" />
            <mxPoint x="860" y="390" as="targetPoint" />
          </mxGeometry>
        </mxCell>
        <mxCell id="gQVoci-WzUw3gmFV9PGs-46" value="" style="endArrow=none;html=1;rounded=0;" edge="1" parent="1" source="gQVoci-WzUw3gmFV9PGs-28" target="gQVoci-WzUw3gmFV9PGs-3">
          <mxGeometry width="50" height="50" relative="1" as="geometry">
            <mxPoint x="780" y="460" as="sourcePoint" />
            <mxPoint x="860" y="390" as="targetPoint" />
          </mxGeometry>
        </mxCell>
        <mxCell id="gQVoci-WzUw3gmFV9PGs-47" value="" style="group" vertex="1" connectable="0" parent="1">
          <mxGeometry x="-20" y="850" width="150" height="45" as="geometry" />
        </mxCell>
        <mxCell id="gQVoci-WzUw3gmFV9PGs-29" value="" style="sketch=0;aspect=fixed;pointerEvents=1;shadow=0;dashed=0;html=1;strokeColor=none;labelPosition=center;verticalLabelPosition=bottom;verticalAlign=top;align=center;fillColor=#00188D;shape=mxgraph.azure.computer" vertex="1" parent="gQVoci-WzUw3gmFV9PGs-47">
          <mxGeometry width="50" height="45" as="geometry" />
        </mxCell>
        <mxCell id="gQVoci-WzUw3gmFV9PGs-30" value="" style="sketch=0;aspect=fixed;pointerEvents=1;shadow=0;dashed=0;html=1;strokeColor=none;labelPosition=center;verticalLabelPosition=bottom;verticalAlign=top;align=center;fillColor=#00188D;shape=mxgraph.azure.computer" vertex="1" parent="gQVoci-WzUw3gmFV9PGs-47">
          <mxGeometry x="50" width="50" height="45" as="geometry" />
        </mxCell>
        <mxCell id="gQVoci-WzUw3gmFV9PGs-31" value="" style="sketch=0;aspect=fixed;pointerEvents=1;shadow=0;dashed=0;html=1;strokeColor=none;labelPosition=center;verticalLabelPosition=bottom;verticalAlign=top;align=center;fillColor=#00188D;shape=mxgraph.azure.computer" vertex="1" parent="gQVoci-WzUw3gmFV9PGs-47">
          <mxGeometry x="100" width="50" height="45" as="geometry" />
        </mxCell>
        <mxCell id="gQVoci-WzUw3gmFV9PGs-49" value="firewall" style="text;html=1;align=center;verticalAlign=middle;resizable=0;points=[];autosize=1;strokeColor=none;fillColor=none;" vertex="1" parent="1">
          <mxGeometry x="530" y="165" width="60" height="30" as="geometry" />
        </mxCell>
        <mxCell id="gQVoci-WzUw3gmFV9PGs-50" value="firewall" style="text;html=1;align=center;verticalAlign=middle;resizable=0;points=[];autosize=1;strokeColor=none;fillColor=none;" vertex="1" parent="1">
          <mxGeometry x="550" y="475" width="60" height="30" as="geometry" />
        </mxCell>
        <mxCell id="gQVoci-WzUw3gmFV9PGs-51" value="router" style="text;html=1;align=center;verticalAlign=middle;resizable=0;points=[];autosize=1;strokeColor=none;fillColor=none;" vertex="1" parent="1">
          <mxGeometry x="575" y="315" width="50" height="30" as="geometry" />
        </mxCell>
        <mxCell id="gQVoci-WzUw3gmFV9PGs-52" value="router" style="text;html=1;align=center;verticalAlign=middle;resizable=0;points=[];autosize=1;strokeColor=none;fillColor=none;" vertex="1" parent="1">
          <mxGeometry x="570" y="679" width="50" height="30" as="geometry" />
        </mxCell>
        <mxCell id="gQVoci-WzUw3gmFV9PGs-53" value="switch" style="text;html=1;align=center;verticalAlign=middle;resizable=0;points=[];autosize=1;strokeColor=none;fillColor=none;" vertex="1" parent="1">
          <mxGeometry x="350" y="765" width="60" height="30" as="geometry" />
        </mxCell>
        <mxCell id="gQVoci-WzUw3gmFV9PGs-54" value="server" style="text;html=1;align=center;verticalAlign=middle;resizable=0;points=[];autosize=1;strokeColor=none;fillColor=none;" vertex="1" parent="1">
          <mxGeometry x="310" y="565" width="60" height="30" as="geometry" />
        </mxCell>
        <mxCell id="gQVoci-WzUw3gmFV9PGs-55" value="server" style="text;html=1;align=center;verticalAlign=middle;resizable=0;points=[];autosize=1;strokeColor=none;fillColor=none;" vertex="1" parent="1">
          <mxGeometry x="310" y="865" width="60" height="30" as="geometry" />
        </mxCell>
        <mxCell id="gQVoci-WzUw3gmFV9PGs-56" value="work stations" style="text;html=1;align=center;verticalAlign=middle;resizable=0;points=[];autosize=1;strokeColor=none;fillColor=none;" vertex="1" parent="1">
          <mxGeometry x="-5" y="815" width="90" height="30" as="geometry" />
        </mxCell>
        <mxCell id="gQVoci-WzUw3gmFV9PGs-57" value="active directory" style="text;html=1;align=center;verticalAlign=middle;resizable=0;points=[];autosize=1;strokeColor=none;fillColor=none;" vertex="1" parent="1">
          <mxGeometry x="100" y="705" width="100" height="30" as="geometry" />
        </mxCell>
        <mxCell id="gQVoci-WzUw3gmFV9PGs-58" value="ACL" style="text;html=1;align=center;verticalAlign=middle;resizable=0;points=[];autosize=1;strokeColor=none;fillColor=none;" vertex="1" parent="1">
          <mxGeometry x="255" y="679" width="50" height="30" as="geometry" />
        </mxCell>
      </root>
    </mxGraphModel>
  </diagram>
</mxfile>
